# xmcd
#
# Track frame offsets:
#	150
#	19715
#	41787
#	59935
#	76222
#	93005
#	108775
#	123812
#	138787
#	158405
#	180432
#	198590
#	214860
#	231645
#	247340
#	262330
#
# Disc length: 3697 seconds
#
# Revision: 1
# Processed by: cddbd v1.5.2PL0 Copyright (c) Steve Scherf et al.
# Submitted via: audiograbber 1.83.01
#
DISCID=e00e6f10
DTITLE=Various Artist - SCSS2121
DYEAR=1900
DGENRE=Country
TTITLE0=Tanya Tucker - Two Sparrows In A Hurricane
TTITLE1=Judds - Love Can Build A Bridge
TTITLE2=Dolly Parton - Silver And Gold
TTITLE3=Jessie Colter - I'm Not Lisa
TTITLE4=Holly Dunn - Daddy's Hands
TTITLE5=Judds - Mama He's Crazy
TTITLE6=Crystal Gayle - Talking In Your Sleep
TTITLE7=Roseanne Cash - Tennessee Flat Top Box
TTITLE8=Tanya Tucker - Two Sparrows In A Hurricane w/ vocals
TTITLE9=Judds - Love Can Build A Bridge w/ vocals
TTITLE10=Dolly Parton - Silver And Gold w/ vocals
TTITLE11=Jessie Colter - I'm Not Lisa w/ vocals
TTITLE12=Holly Dunn - Daddy's Hands w/ vocals
TTITLE13=Judds - Mama He's Crazy w/ vocals
TTITLE14=Crystal Gayle - Talking In Your Sleep w/ vocals
TTITLE15=Roseanne Cash - Tennessee Flat Top Box w/ vocals
EXTD=
EXTT0=
EXTT1=
EXTT2=
EXTT3=
EXTT4=
EXTT5=
EXTT6=
EXTT7=
EXTT8=
EXTT9=
EXTT10=
EXTT11=
EXTT12=
EXTT13=
EXTT14=
EXTT15=
PLAYORDER=
